<svg width="21" height="24" viewBox="0 0 21 24" fill="none" xmlns="http://www.w3.org/2000/svg">
<path d="M19.792 18.7038C19.429 19.5423 18.9994 20.3141 18.5017 21.0237C17.8232 21.9911 17.2676 22.6607 16.8395 23.0326C16.1758 23.6429 15.4647 23.9555 14.7033 23.9733C14.1566 23.9733 13.4974 23.8177 12.73 23.5022C11.9601 23.1881 11.2525 23.0326 10.6056 23.0326C9.92711 23.0326 9.19942 23.1881 8.42108 23.5022C7.64155 23.8177 7.01356 23.9822 6.53343 23.9985C5.80323 24.0296 5.0754 23.7081 4.3489 23.0326C3.88522 22.6281 3.30523 21.9348 2.61044 20.9526C1.86498 19.9038 1.25211 18.6875 0.771977 17.3009C0.25777 15.8032 0 14.3528 0 12.9487C0 11.3403 0.347545 9.95311 1.04367 8.79062C1.59077 7.85688 2.3186 7.1203 3.22953 6.57958C4.14047 6.03886 5.12473 5.76331 6.1847 5.74568C6.76468 5.74568 7.52525 5.92508 8.47041 6.27766C9.4129 6.63143 10.0181 6.81083 10.2834 6.81083C10.4818 6.81083 11.154 6.60106 12.2937 6.18285C13.3714 5.79501 14.281 5.63442 15.0262 5.69768C17.0454 5.86064 18.5624 6.65662 19.5713 8.09065C17.7654 9.18483 16.8721 10.7174 16.8899 12.6834C16.9062 14.2148 17.4617 15.4891 18.5535 16.5009C19.0483 16.9705 19.6009 17.3335 20.2157 17.5912C20.0824 17.9779 19.9416 18.3483 19.792 18.7038V18.7038ZM15.161 0.480655C15.161 1.68093 14.7225 2.80162 13.8485 3.83892C12.7937 5.07207 11.5179 5.78464 10.1344 5.6722C10.1167 5.52821 10.1065 5.37665 10.1065 5.2174C10.1065 4.06514 10.6081 2.83199 11.4989 1.82373C11.9436 1.31322 12.5092 0.888747 13.1952 0.550134C13.8796 0.216574 14.527 0.0321078 15.1358 0.000518799C15.1536 0.160977 15.161 0.321445 15.161 0.48064V0.480655Z" fill="black"/>
</svg>
