<svg width="24" height="24" viewBox="0 0 24 24" fill="none" xmlns="http://www.w3.org/2000/svg">
<g clip-path="url(#clip0)">
<path d="M23.5236 12.2756C23.5236 11.4599 23.4574 10.6397 23.3163 9.83722H11.9976V14.4582H18.4793C18.2103 15.9486 17.3461 17.2669 16.0806 18.1047V21.1031H19.9476C22.2184 19.013 23.5236 15.9265 23.5236 12.2756Z" fill="#4285F4"/>
<path d="M11.9979 24C15.2344 24 17.9637 22.9374 19.9524 21.1031L16.0854 18.1047C15.0095 18.8367 13.6206 19.2511 12.0023 19.2511C8.8717 19.2511 6.21728 17.1391 5.26486 14.2995H1.27441V17.3904C3.31153 21.4426 7.46071 24 11.9979 24Z" fill="#34A853"/>
<path d="M5.2601 14.2995C4.75744 12.8091 4.75744 11.1953 5.2601 9.70494V6.614H1.27406C-0.427942 10.0048 -0.427942 13.9996 1.27406 17.3904L5.2601 14.2995Z" fill="#FBBC04"/>
<path d="M11.9979 4.74885C13.7087 4.7224 15.3622 5.36616 16.6013 6.54786L20.0273 3.12181C17.8579 1.0847 14.9786 -0.0352747 11.9979 -4.9884e-08C7.46071 -4.9884e-08 3.31153 2.55741 1.27441 6.614L5.26045 9.70494C6.20846 6.86092 8.86729 4.74885 11.9979 4.74885Z" fill="#EA4335"/>
</g>
<defs>
<clipPath id="clip0">
<rect width="24" height="24" fill="white"/>
</clipPath>
</defs>
</svg>
