<svg width="189" height="36" viewBox="0 0 189 36" fill="none" xmlns="http://www.w3.org/2000/svg">
<path d="M33.5655 28.9324C28.5743 33.4844 22.3252 28.9324 22.2554 28.9324C14.0198 22.9429 7.68093 28.3834 7.62103 28.4333C7.58103 28.4788 7.55896 28.5374 7.55896 28.598C7.55896 28.6586 7.58103 28.7171 7.62103 28.7627C7.65061 28.8153 7.69826 28.8555 7.75516 28.8757C7.81206 28.8958 7.87435 28.8947 7.93049 28.8725C13.341 26.7462 20.0692 33.3446 20.1491 33.4245C21.6328 34.9405 23.6228 35.8573 25.7393 36C26.1656 35.9987 26.5906 35.9518 27.007 35.8602C31.3794 34.9319 33.865 29.5114 33.9948 29.2818C34.0195 29.2264 34.024 29.1642 34.0076 29.1058C33.9912 29.0475 33.9549 28.9967 33.9049 28.9623C33.8615 28.9172 33.8032 28.8894 33.7408 28.8839C33.6785 28.8784 33.6162 28.8956 33.5655 28.9324Z" fill="#070417"/>
<path d="M43.3085 9.67616H37.2191C37.0758 9.67616 36.9596 9.79237 36.9596 9.93571V32.8455C36.9596 32.9889 37.0758 33.1051 37.2191 33.1051H43.3085C43.4518 33.1051 43.568 32.9889 43.568 32.8455V9.93571C43.568 9.79237 43.4518 9.67616 43.3085 9.67616Z" fill="#070417"/>
<path d="M68.5143 15.6557C67.96 14.3995 67.1705 13.261 66.1883 12.3016C65.1914 11.341 64.0232 10.5758 62.7444 10.0455C61.4122 9.49496 59.9832 9.21664 58.5418 9.22696C57.1788 9.21961 55.8259 9.45976 54.5488 9.93572C53.3867 10.3698 52.3066 10.9976 51.3543 11.7925L49.5276 9.79596C49.4774 9.7453 49.4092 9.71659 49.3379 9.7161H47.9204C47.8532 9.71605 47.7887 9.74202 47.7403 9.78856C47.6919 9.83509 47.6634 9.89857 47.6608 9.96567V32.9254C47.6608 32.9942 47.6882 33.0602 47.7368 33.1089C47.7855 33.1576 47.8515 33.1849 47.9204 33.1849H53.9698C54.0386 33.1849 54.1046 33.1576 54.1533 33.1089C54.202 33.0602 54.2293 32.9942 54.2293 32.9254V19.7485C54.2281 19.1991 54.3402 18.6554 54.5587 18.1513C55.0042 17.1426 55.8291 16.35 56.8547 15.9452C57.9316 15.5162 59.1319 15.5162 60.2088 15.9452C60.7141 16.1517 61.175 16.4533 61.5664 16.8336C61.9548 17.2094 62.2667 17.6569 62.4848 18.1513C62.7034 18.6554 62.8155 19.1991 62.8143 19.7485V32.8455C62.8143 32.9144 62.8416 32.9804 62.8903 33.0291C62.939 33.0777 63.005 33.1051 63.0738 33.1051H69.1232C69.192 33.1051 69.2581 33.0777 69.3067 33.0291C69.3554 32.9804 69.3827 32.9144 69.3827 32.8455V19.7485C69.3856 18.3382 69.0896 16.9433 68.5143 15.6557Z" fill="#070417"/>
<path d="M47.9203 2.78825C47.9405 2.7379 47.9455 2.68278 47.9349 2.6296C47.9243 2.57643 47.8984 2.5275 47.8604 2.48877C47.8177 2.46002 47.7673 2.44466 47.7157 2.44466C47.6641 2.44466 47.6138 2.46002 47.571 2.48877L47.2815 2.62853C45.7442 3.40716 44.3865 2.37896 43.0788 1.38071C42.2379 0.653465 41.191 0.206781 40.0841 0.102955C39.6589 0.0999784 39.2355 0.157111 38.8263 0.272657H38.7664C38.161 0.439725 37.5875 0.706226 37.0694 1.06127C37.0352 1.0844 37.0072 1.11566 36.9881 1.15225C36.9689 1.18883 36.9591 1.22961 36.9596 1.27091V7.57984C36.9572 7.6277 36.9693 7.67516 36.9942 7.71609C37.0191 7.75701 37.0557 7.78953 37.0993 7.80944H37.2091C37.2681 7.81073 37.3253 7.78928 37.3689 7.74954L37.5585 7.59981H37.6284C37.6531 7.58523 37.6737 7.56462 37.6883 7.53991C38.0477 7.2604 38.3671 7.03081 38.6865 6.84114C39.4386 6.33327 40.3358 6.08445 41.2421 6.13238H41.3718H41.9408C43.4563 6.36514 45.0033 6.00786 46.2633 5.13413L46.4529 5.05427C46.5736 4.94534 46.6869 4.82863 46.7923 4.70488H46.8522L47.0219 4.48527C47.3372 4.042 47.5985 3.5628 47.8006 3.05777L47.9203 2.78825Z" fill="#070417"/>
<path d="M8.56938 23.0228C8.57823 22.9832 8.57834 22.9421 8.56973 22.9025C8.56111 22.8628 8.54396 22.8255 8.51947 22.7932C6.94213 20.9272 6.10391 18.5475 6.1636 16.1049C6.19975 14.4501 6.64193 12.8296 7.45127 11.3857C8.26061 9.94192 9.41231 8.71908 10.8051 7.82477C12.1979 6.93045 13.789 6.39205 15.4387 6.25692C17.0884 6.12179 18.746 6.39406 20.2657 7.04979C21.7855 7.70553 23.1208 8.72464 24.1543 10.0175C25.1878 11.3103 25.8879 12.8373 26.1928 14.4642C26.4978 16.091 26.3983 17.7679 25.9032 19.3473C25.4081 20.9267 24.5325 22.3603 23.3535 23.5219C23.3279 23.548 23.3084 23.5794 23.2963 23.6139C23.2842 23.6484 23.2799 23.6852 23.2836 23.7215C23.2835 23.7589 23.2926 23.7957 23.31 23.8287C23.3274 23.8618 23.3526 23.8901 23.3834 23.9112L23.9424 24.3205C25.4351 25.3525 27.1411 26.0349 28.9337 26.317C28.9733 26.3206 29.0133 26.3143 29.0499 26.2986C29.0865 26.2829 29.1186 26.2584 29.1433 26.2271C30.7191 24.19 31.7889 21.8078 32.2645 19.2766C32.7402 16.7453 32.6082 14.1373 31.8794 11.6671C31.1506 9.19678 29.8458 6.9348 28.0723 5.06714C26.2988 3.19948 24.1073 1.77949 21.678 0.923949C19.2487 0.0684112 16.651 -0.198234 14.0986 0.145943C11.5461 0.490119 9.11187 1.43529 6.99594 2.90371C4.88001 4.37213 3.14289 6.32187 1.92743 8.59257C0.71197 10.8633 0.0528951 13.3901 0.00440775 15.9651C-0.0761259 19.4157 0.948731 22.8015 2.92928 25.6282C2.96579 25.6815 3.02157 25.7186 3.08487 25.7316C3.14818 25.7447 3.21407 25.7326 3.26868 25.6981C4.89393 24.7016 6.61238 23.8658 8.39968 23.2025C8.43985 23.1875 8.47605 23.1635 8.50547 23.1324C8.5349 23.1012 8.55677 23.0637 8.56938 23.0228Z" fill="#070417"/>
<path d="M98.7609 0.438347C98.886 0.188139 99.1049 0.0630341 99.4177 0.0630341H104.86C105.016 0.0630341 105.141 0.125586 105.235 0.25069C105.36 0.344519 105.423 0.469622 105.423 0.626002V32.3398C105.423 32.4962 105.36 32.6369 105.235 32.762C105.141 32.8558 105.016 32.9028 104.86 32.9028H99.3708C99.2144 32.9028 99.0737 32.8558 98.9485 32.762C98.8547 32.6369 98.8078 32.4962 98.8078 32.3398V11.51C98.8078 11.3849 98.7765 11.3224 98.714 11.3224C98.6514 11.2911 98.5889 11.3224 98.5263 11.4162L94.2102 18.5471C94.0851 18.7973 93.8662 18.9224 93.5535 18.9224H92.4744C92.1617 18.9224 91.9427 18.7973 91.8176 18.5471L87.5016 11.4162C87.439 11.3224 87.3765 11.2911 87.3139 11.3224C87.2514 11.3224 87.2201 11.3849 87.2201 11.51V32.3398C87.2201 32.4962 87.1575 32.6369 87.0324 32.762C86.9386 32.8558 86.8135 32.9028 86.6571 32.9028H81.1682C81.0118 32.9028 80.8711 32.8558 80.746 32.762C80.6521 32.6369 80.6052 32.4962 80.6052 32.3398V0.626002C80.6052 0.469622 80.6521 0.344519 80.746 0.25069C80.8711 0.125586 81.0118 0.0630341 81.1682 0.0630341H86.6102C86.923 0.0630341 87.1419 0.188139 87.267 0.438347L92.8967 9.68038C92.9905 9.86804 93.0843 9.86804 93.1781 9.68038L98.7609 0.438347Z" fill="#3B82F6"/>
<path d="M129.295 17.1866C129.389 18.2187 129.436 19.3603 129.436 20.6113L129.389 22.441C129.389 22.8163 129.201 23.0039 128.826 23.0039H116.394C116.238 23.0039 116.159 23.0821 116.159 23.2385C116.222 23.9578 116.284 24.4895 116.347 24.8336C116.503 25.7093 116.879 26.3974 117.473 26.8978C118.098 27.3982 118.865 27.6484 119.772 27.6484C121.304 27.6171 122.368 26.9134 122.962 25.5373C123.118 25.2245 123.353 25.0994 123.666 25.162L128.638 26.1472C129.014 26.241 129.139 26.4756 129.014 26.8509C128.326 28.9151 127.184 30.5101 125.589 31.6361C124.025 32.7307 122.086 33.2781 119.772 33.2781C116.988 33.2781 114.768 32.6525 113.11 31.4015C111.484 30.1192 110.42 28.2896 109.92 25.9126C109.638 24.6303 109.498 22.6755 109.498 20.0484C109.498 18.5471 109.591 17.2804 109.779 16.2483C110.123 13.8714 111.155 11.9792 112.875 10.5717C114.596 9.13305 116.769 8.41371 119.396 8.41371C122.243 8.41371 124.557 9.22688 126.34 10.8532C128.122 12.4483 129.108 14.5594 129.295 17.1866ZM119.443 14.0903C118.599 14.0903 117.895 14.3405 117.332 14.8409C116.8 15.3413 116.456 16.0294 116.3 16.9051C116.206 17.4681 116.159 18.0623 116.159 18.6878C116.159 18.8442 116.238 18.9224 116.394 18.9224H122.493C122.649 18.9224 122.727 18.8442 122.727 18.6878C122.727 18.0623 122.68 17.4681 122.587 16.9051C122.461 16.0607 122.117 15.3882 121.554 14.8878C120.991 14.3561 120.288 14.0903 119.443 14.0903Z" fill="#3B82F6"/>
<path d="M157.359 8.41371C159.642 8.41371 161.377 9.14869 162.566 10.6187C163.786 12.0574 164.396 14.0903 164.396 16.7175V32.3398C164.396 32.4962 164.333 32.6369 164.208 32.762C164.114 32.8558 163.989 32.9028 163.833 32.9028H158.391C158.234 32.9028 158.093 32.8558 157.968 32.762C157.875 32.6369 157.828 32.4962 157.828 32.3398V17.6557C157.828 16.5611 157.562 15.701 157.03 15.0755C156.53 14.4187 155.842 14.0903 154.966 14.0903C154.059 14.0903 153.34 14.4187 152.808 15.0755C152.276 15.701 152.01 16.5454 152.01 17.6088V32.3398C152.01 32.4962 151.948 32.6369 151.823 32.762C151.729 32.8558 151.604 32.9028 151.447 32.9028H146.005C145.849 32.9028 145.708 32.8558 145.583 32.762C145.489 32.6369 145.442 32.4962 145.442 32.3398V17.6557C145.442 16.5611 145.177 15.701 144.645 15.0755C144.113 14.4187 143.409 14.0903 142.534 14.0903C141.627 14.0903 140.907 14.4187 140.376 15.0755C139.844 15.701 139.578 16.5454 139.578 17.6088V32.3398C139.578 32.4962 139.516 32.6369 139.39 32.762C139.297 32.8558 139.172 32.9028 139.015 32.9028H133.573C133.417 32.9028 133.276 32.8558 133.151 32.762C133.057 32.6369 133.01 32.4962 133.01 32.3398V9.35198C133.01 9.1956 133.057 9.0705 133.151 8.97667C133.276 8.85157 133.417 8.78902 133.573 8.78902H139.015C139.172 8.78902 139.297 8.85157 139.39 8.97667C139.516 9.0705 139.578 9.1956 139.578 9.35198V10.5717C139.578 10.6656 139.609 10.7281 139.672 10.7594C139.735 10.7907 139.797 10.7594 139.86 10.6656C140.516 9.88368 141.283 9.32071 142.158 8.97667C143.034 8.60136 143.972 8.41371 144.973 8.41371C146.381 8.41371 147.585 8.71083 148.586 9.30507C149.618 9.86804 150.415 10.6969 150.978 11.7915C151.009 11.8541 151.056 11.8853 151.119 11.8853C151.182 11.8541 151.244 11.7915 151.307 11.6977C151.995 10.5405 152.87 9.71166 153.934 9.21124C154.997 8.67955 156.139 8.41371 157.359 8.41371Z" fill="#3B82F6"/>
<path d="M178.09 33.2781C175.369 33.2781 173.133 32.6056 171.381 31.2608C169.661 29.8846 168.629 28.0081 168.285 25.6311C168.035 24.1924 167.91 22.5817 167.91 20.799C167.91 18.985 168.035 17.3743 168.285 15.9668C168.629 13.6524 169.661 11.8228 171.381 10.4779C173.133 9.10178 175.369 8.41371 178.09 8.41371C180.78 8.41371 182.969 9.10178 184.658 10.4779C186.378 11.8228 187.426 13.6524 187.801 15.9668C188.051 17.3743 188.177 18.985 188.177 20.799C188.177 22.5504 188.051 24.1455 187.801 25.5842C187.457 27.9924 186.425 29.8846 184.705 31.2608C183.016 32.6056 180.811 33.2781 178.09 33.2781ZM178.09 27.6015C178.903 27.6015 179.591 27.3356 180.154 26.804C180.748 26.2723 181.139 25.5529 181.327 24.6459C181.483 23.3323 181.562 22.05 181.562 20.799C181.562 19.5167 181.483 18.25 181.327 16.9989C181.171 16.0919 180.795 15.3882 180.201 14.8878C179.638 14.3561 178.919 14.0903 178.043 14.0903C177.199 14.0903 176.479 14.3561 175.885 14.8878C175.322 15.3882 174.962 16.0919 174.806 16.9989C174.65 17.9372 174.571 19.2039 174.571 20.799C174.571 22.3628 174.634 23.6451 174.759 24.6459C174.947 25.5529 175.338 26.2723 175.932 26.804C176.526 27.3356 177.246 27.6015 178.09 27.6015Z" fill="#3B82F6"/>
</svg>
