<svg width="24" height="24" viewBox="0 0 24 24" fill="none" xmlns="http://www.w3.org/2000/svg">
<mask id="path-1-inside-1" fill="white">
<path d="M7.54752 21.5012C16.6042 21.5012 21.5578 13.9979 21.5578 7.49101C21.5578 7.27789 21.5578 7.06573 21.5434 6.85453C22.507 6.15748 23.3389 5.29441 24 4.30573C23.1013 4.70394 22.148 4.96508 21.1718 5.08045C22.1998 4.46507 22.9691 3.49719 23.3366 2.35693C22.3701 2.93049 21.3126 3.3347 20.2099 3.55213C19.4675 2.76271 18.4856 2.23997 17.4162 2.06481C16.3468 1.88966 15.2494 2.07184 14.294 2.58318C13.3385 3.09452 12.5782 3.9065 12.1307 4.89348C11.6833 5.88045 11.5735 6.98739 11.8186 8.04301C9.86088 7.94486 7.94572 7.43613 6.19741 6.54981C4.4491 5.6635 2.90672 4.41943 1.6704 2.89837C1.04073 3.98236 0.847872 5.2656 1.1311 6.48679C1.41433 7.70798 2.15234 8.77532 3.19488 9.47149C2.41127 9.44826 1.64475 9.23688 0.96 8.85517C0.96 8.87533 0.96 8.89645 0.96 8.91757C0.960311 10.0544 1.35385 11.1562 2.07387 12.0359C2.79389 12.9157 3.79606 13.5193 4.9104 13.7444C4.18547 13.9421 3.42488 13.9711 2.68704 13.8289C3.00169 14.8073 3.61427 15.6629 4.43911 16.276C5.26395 16.8892 6.25979 17.2291 7.28736 17.2484C5.54375 18.6188 3.38982 19.3627 1.17216 19.3604C0.780387 19.3597 0.388996 19.336 0 19.2894C2.25181 20.7345 4.87192 21.501 7.54752 21.4974"/>
</mask>
<path d="M7.54752 21.5012C16.6042 21.5012 21.5578 13.9979 21.5578 7.49101C21.5578 7.27789 21.5578 7.06573 21.5434 6.85453C22.507 6.15748 23.3389 5.29441 24 4.30573C23.1013 4.70394 22.148 4.96508 21.1718 5.08045C22.1998 4.46507 22.9691 3.49719 23.3366 2.35693C22.3701 2.93049 21.3126 3.3347 20.2099 3.55213C19.4675 2.76271 18.4856 2.23997 17.4162 2.06481C16.3468 1.88966 15.2494 2.07184 14.294 2.58318C13.3385 3.09452 12.5782 3.9065 12.1307 4.89348C11.6833 5.88045 11.5735 6.98739 11.8186 8.04301C9.86088 7.94486 7.94572 7.43613 6.19741 6.54981C4.4491 5.6635 2.90672 4.41943 1.6704 2.89837C1.04073 3.98236 0.847872 5.2656 1.1311 6.48679C1.41433 7.70798 2.15234 8.77532 3.19488 9.47149C2.41127 9.44826 1.64475 9.23688 0.96 8.85517C0.96 8.87533 0.96 8.89645 0.96 8.91757C0.960311 10.0544 1.35385 11.1562 2.07387 12.0359C2.79389 12.9157 3.79606 13.5193 4.9104 13.7444C4.18547 13.9421 3.42488 13.9711 2.68704 13.8289C3.00169 14.8073 3.61427 15.6629 4.43911 16.276C5.26395 16.8892 6.25979 17.2291 7.28736 17.2484C5.54375 18.6188 3.38982 19.3627 1.17216 19.3604C0.780387 19.3597 0.388996 19.336 0 19.2894C2.25181 20.7345 4.87192 21.501 7.54752 21.4974" fill="#1DA1F2"/>
<path d="M21.5434 6.85453L21.0061 6.11179L20.5942 6.40972L20.6288 6.91688L21.5434 6.85453ZM24 4.30573L24.762 4.81526L26.5197 2.18661L23.6286 3.46765L24 4.30573ZM21.1718 5.08045L20.701 4.29395L21.2794 5.99078L21.1718 5.08045ZM23.3366 2.35693L24.2091 2.63816L24.9524 0.332232L22.8689 1.56861L23.3366 2.35693ZM20.2099 3.55213L19.5422 4.18012L19.8896 4.5496L20.3873 4.45148L20.2099 3.55213ZM11.8186 8.04301L11.7727 8.95852L12.9862 9.01936L12.7115 7.83575L11.8186 8.04301ZM1.6704 2.89837L2.38173 2.3202L1.5445 1.29013L0.877758 2.43794L1.6704 2.89837ZM3.19488 9.47149L3.16772 10.3878L6.35935 10.4823L3.70393 8.70916L3.19488 9.47149ZM0.96 8.85517L1.40633 8.0545L0.0433333 7.29471V8.85517H0.96ZM0.96 8.91757H0.0433333L0.0433334 8.91782L0.96 8.91757ZM4.9104 13.7444L5.15159 14.6288L5.09191 12.8459L4.9104 13.7444ZM2.68704 13.8289L2.86042 12.9288L1.34051 12.636L1.81439 14.1096L2.68704 13.8289ZM7.28736 17.2484L7.85379 17.9692L9.87555 16.3802L7.30457 16.3319L7.28736 17.2484ZM1.17216 19.3604L1.1704 20.2771L1.17124 20.2771L1.17216 19.3604ZM0 19.2894L0.108957 18.3792L-0.495082 20.0609L0 19.2894ZM7.54752 22.4179C17.2157 22.4179 22.4744 14.3921 22.4744 7.49101H20.6411C20.6411 13.6037 15.9927 20.5846 7.54752 20.5846V22.4179ZM22.4744 7.49101C22.4744 7.2832 22.4748 7.03974 22.4579 6.79217L20.6288 6.91688C20.6407 7.09172 20.6411 7.27258 20.6411 7.49101H22.4744ZM22.0806 7.59726C23.1324 6.83644 24.0404 5.8944 24.762 4.81526L23.238 3.7962C22.6374 4.69442 21.8816 5.47852 21.0061 6.11179L22.0806 7.59726ZM23.6286 3.46765C22.8138 3.82872 21.9494 4.06551 21.0643 4.17012L21.2794 5.99078C22.3466 5.86465 23.3889 5.57915 24.3714 5.1438L23.6286 3.46765ZM21.6427 5.86695C22.8613 5.1374 23.7733 3.98996 24.2091 2.63816L22.4642 2.07569C22.1648 3.00441 21.5382 3.79274 20.701 4.29395L21.6427 5.86695ZM22.8689 1.56861C21.9921 2.08888 21.0329 2.45555 20.0326 2.65278L20.3873 4.45148C21.5924 4.21385 22.7481 3.77209 23.8044 3.14525L22.8689 1.56861ZM20.8777 2.92414C19.9972 1.98789 18.8327 1.36793 17.5644 1.1602L17.268 2.96943C18.1386 3.11201 18.9378 3.53752 19.5422 4.18012L20.8777 2.92414ZM17.5644 1.1602C16.296 0.952465 14.9946 1.16854 13.8614 1.77498L14.7265 3.39138C15.5043 2.97515 16.3975 2.82685 17.268 2.96943L17.5644 1.1602ZM13.8614 1.77498C12.7283 2.38142 11.8266 3.34442 11.2959 4.51496L12.9656 5.27199C13.3299 4.46858 13.9488 3.80762 14.7265 3.39138L13.8614 1.77498ZM11.2959 4.51496C10.7652 5.6855 10.635 6.99832 10.9256 8.25027L12.7115 7.83575C12.512 6.97647 12.6014 6.0754 12.9656 5.27199L11.2959 4.51496ZM11.8645 7.12749C10.0351 7.03578 8.24557 6.5604 6.6119 5.73221L5.78293 7.36742C7.64588 8.31185 9.68662 8.85395 11.7727 8.95852L11.8645 7.12749ZM6.6119 5.73221C4.97823 4.90402 3.53699 3.74152 2.38173 2.3202L0.959067 3.47654C2.27646 5.09735 3.91998 6.42299 5.78293 7.36742L6.6119 5.73221ZM0.877758 2.43794C0.130952 3.72358 -0.0977797 5.24553 0.238135 6.69389L2.02406 6.27969C1.79352 5.28566 1.9505 4.24114 2.46304 3.3588L0.877758 2.43794ZM0.238135 6.69389C0.574049 8.14226 1.44935 9.40815 2.68583 10.2338L3.70393 8.70916C2.85533 8.1425 2.2546 7.27371 2.02406 6.27969L0.238135 6.69389ZM3.22204 8.55522C2.5854 8.53635 1.96265 8.36462 1.40633 8.0545L0.513673 9.65584C1.32685 10.1091 2.23714 10.3602 3.16772 10.3878L3.22204 8.55522ZM0.0433333 8.85517C0.0433333 8.87309 0.0433333 8.89869 0.0433333 8.91757H1.87667C1.87667 8.89869 1.87667 8.87309 1.87667 8.85517H0.0433333ZM0.0433334 8.91782C0.0437023 10.2662 0.510479 11.573 1.36449 12.6165L2.78325 11.4554C2.19722 10.7393 1.87692 9.8426 1.87667 8.91732L0.0433334 8.91782ZM1.36449 12.6165C2.21851 13.66 3.40718 14.376 4.72889 14.643L5.09191 12.8459C4.18495 12.6627 3.36928 12.1714 2.78325 11.4554L1.36449 12.6165ZM4.66921 12.8601C4.07946 13.0209 3.46068 13.0444 2.86042 12.9288L2.51366 14.729C3.38907 14.8977 4.29149 14.8634 5.15159 14.6288L4.66921 12.8601ZM1.81439 14.1096C2.18755 15.2699 2.91404 16.2846 3.89226 17.0117L4.98596 15.5404C4.3145 15.0412 3.81583 14.3448 3.55969 13.5483L1.81439 14.1096ZM3.89226 17.0117C4.87047 17.7389 6.0515 18.1421 7.27015 18.165L7.30457 16.3319C6.46808 16.3162 5.65742 16.0395 4.98596 15.5404L3.89226 17.0117ZM6.72093 16.5277C5.13909 17.7709 3.18499 18.4458 1.17308 18.4438L1.17124 20.2771C3.59464 20.2796 5.94841 19.4666 7.85379 17.9692L6.72093 16.5277ZM1.17392 18.4438C0.817979 18.4431 0.462382 18.4215 0.108957 18.3792L-0.108957 20.1996C0.31561 20.2504 0.742796 20.2763 1.1704 20.2771L1.17392 18.4438ZM-0.495082 20.0609C1.9048 21.601 4.6972 22.4179 7.54874 22.4141L7.5463 20.5807C5.04663 20.5841 2.59882 19.868 0.495082 18.5179L-0.495082 20.0609Z" fill="#1DA1F2" mask="url(#path-1-inside-1)"/>
</svg>
