<svg width="300" height="260" viewBox="0 0 300 260" fill="none" xmlns="http://www.w3.org/2000/svg">
<g clip-path="url(#clip0)">
<path d="M250.631 211.178C245.907 225.016 239.831 238.824 232.047 251.966C231.874 252.262 231.7 252.552 231.524 252.847L212.254 246.751C212.365 246.472 212.486 246.16 212.616 245.819C220.389 225.719 267.281 103.253 265.176 79.1067C265.403 81.0832 272.739 146.492 250.631 211.178Z" fill="#E6E6E6"/>
<path d="M235.765 253.143C235.503 253.41 235.234 253.676 234.964 253.936L220.508 249.362C220.703 249.126 220.931 248.847 221.193 248.532C225.474 243.304 238.202 227.65 250.631 211.179C263.988 193.478 277.002 174.837 278.825 167.178C278.459 168.919 267.053 221.941 235.765 253.143Z" fill="#E6E6E6"/>
<path d="M242.991 49.2309C242.985 49.2309 242.98 49.2324 242.975 49.2326V18.2447C242.975 14.8898 241.642 11.6722 239.27 9.29996C236.898 6.92768 233.68 5.59494 230.325 5.59494H133.31C129.956 5.59494 126.738 6.92768 124.366 9.29996C121.994 11.6722 120.661 14.8898 120.661 18.2447V34.1307C120.393 34.1364 120.138 34.2468 119.951 34.4381C119.763 34.6295 119.658 34.8867 119.658 35.1546V43.0231C119.658 43.291 119.763 43.5481 119.951 43.7394C120.138 43.9308 120.393 44.0411 120.661 44.0467V52.2898H120.609C120.475 52.2898 120.341 52.3163 120.217 52.3679C120.092 52.4194 119.979 52.495 119.884 52.5903C119.789 52.6856 119.713 52.7987 119.661 52.9232C119.61 53.0477 119.583 53.1811 119.583 53.3158V68.5316C119.583 68.6664 119.61 68.7998 119.661 68.9243C119.713 69.0488 119.789 69.1619 119.884 69.2572C119.979 69.3525 120.092 69.428 120.217 69.4796C120.341 69.5312 120.475 69.5577 120.609 69.5577H120.661V75.6009H120.645C120.51 75.6009 120.377 75.6274 120.252 75.679C120.128 75.7306 120.015 75.8061 119.919 75.9014C119.824 75.9967 119.748 76.1098 119.697 76.2343C119.645 76.3588 119.619 76.4922 119.619 76.627V91.9916C119.619 92.1263 119.645 92.2598 119.697 92.3842C119.748 92.5087 119.824 92.6219 119.919 92.7171C120.015 92.8124 120.128 92.888 120.252 92.9396C120.377 92.9911 120.51 93.0177 120.645 93.0177H120.661V241.535C120.661 244.89 121.994 248.107 124.366 250.48C126.738 252.852 129.956 254.185 133.31 254.185H230.325C233.68 254.185 236.898 252.852 239.27 250.48C241.642 248.107 242.975 244.89 242.975 241.535V79.3633C242.98 79.3633 242.985 79.3649 242.991 79.3649C243.231 79.3649 243.468 79.3176 243.69 79.2258C243.912 79.134 244.113 78.9994 244.283 78.8298C244.452 78.6601 244.587 78.4587 244.679 78.237C244.771 78.0154 244.818 77.7778 244.818 77.5378V51.0581C244.818 50.5735 244.625 50.1087 244.283 49.7661C243.94 49.4234 243.475 49.2309 242.991 49.2309Z" fill="#3F3D56"/>
<path d="M235.422 21.7855V237.99C235.421 240.566 234.397 243.037 232.575 244.858C230.754 246.679 228.283 247.702 225.707 247.702H137.929C135.353 247.702 132.882 246.679 131.061 244.858C129.239 243.037 128.215 240.566 128.214 237.99V21.7855C128.214 19.2089 129.237 16.7378 131.059 14.9159C132.881 13.094 135.352 12.0704 137.929 12.0704H151.064V13.7752C151.065 15.8966 151.908 17.9308 153.408 19.4308C154.908 20.9308 156.942 21.7739 159.063 21.7748H203.722C205.84 21.7701 207.87 20.9252 209.367 19.4255C210.863 17.9258 211.704 15.8938 211.704 13.7752V12.0881H225.707C228.281 12.0881 230.749 13.1092 232.57 14.9273C234.392 16.7454 235.417 19.2119 235.422 21.7855Z" fill="white"/>
<path d="M93.0823 126.911C92.5633 126.71 92.0064 126.626 91.451 126.663C90.8957 126.701 90.3553 126.859 89.8679 127.128C89.3806 127.397 88.9581 127.77 88.6303 128.22C88.3025 128.669 88.0773 129.186 87.9705 129.732L56.6906 146.74L62.1903 152.93L91.2394 134.288C92.1691 134.406 93.1099 134.179 93.8835 133.65C94.6572 133.122 95.21 132.327 95.4372 131.418C95.6643 130.509 95.5501 129.548 95.1161 128.717C94.6821 127.887 93.9585 127.244 93.0823 126.911H93.0823Z" fill="#FFB8B8"/>
<path d="M85.1049 249.286L89.0025 246.765L81.1331 230.531L75.3804 234.252L85.1049 249.286Z" fill="#FFB8B8"/>
<path d="M98.8607 245.523L86.6107 253.446L83.5493 248.713L91.2433 243.737C92.4516 242.955 93.921 242.685 95.328 242.987C96.7351 243.289 97.9647 244.137 98.7462 245.346L98.8607 245.523L98.8607 245.523Z" fill="#2F2E41"/>
<path d="M41.371 249.873H46.0129L48.2221 231.968H41.371V249.873Z" fill="#FFB8B8"/>
<path d="M54.9657 254.184H40.3764V248.547H49.5397C50.2522 248.547 50.9578 248.687 51.6161 248.96C52.2744 249.232 52.8726 249.632 53.3765 250.136C53.8803 250.64 54.28 251.238 54.5527 251.896C54.8253 252.555 54.9657 253.26 54.9657 253.973V254.184Z" fill="#2F2E41"/>
<path d="M147.873 40.6811H138.304C138.069 40.6811 137.843 40.5878 137.677 40.4216C137.511 40.2554 137.418 40.0301 137.418 39.7951C137.418 39.5601 137.511 39.3347 137.677 39.1685C137.843 39.0023 138.069 38.909 138.304 38.909H147.873C148.108 38.909 148.334 39.0023 148.5 39.1685C148.666 39.3347 148.76 39.5601 148.76 39.7951C148.76 40.0301 148.666 40.2554 148.5 40.4216C148.334 40.5878 148.108 40.6811 147.873 40.6811Z" fill="#3F3D56"/>
<path d="M147.873 43.1622H138.304C138.069 43.1622 137.843 43.0688 137.677 42.9027C137.511 42.7365 137.418 42.5111 137.418 42.2761C137.418 42.0411 137.511 41.8157 137.677 41.6496C137.843 41.4834 138.069 41.39 138.304 41.39H147.873C148.108 41.39 148.334 41.4834 148.5 41.6496C148.666 41.8157 148.76 42.0411 148.76 42.2761C148.76 42.5111 148.666 42.7365 148.5 42.9027C148.334 43.0688 148.108 43.1622 147.873 43.1622Z" fill="#3F3D56"/>
<path d="M147.873 45.6432H138.304C138.069 45.6432 137.843 45.5499 137.677 45.3837C137.511 45.2175 137.418 44.9922 137.418 44.7572C137.418 44.5222 137.511 44.2968 137.677 44.1306C137.843 43.9644 138.069 43.8711 138.304 43.8711H147.873C148.108 43.8711 148.334 43.9644 148.5 44.1306C148.666 44.2968 148.76 44.5222 148.76 44.7572C148.76 44.9922 148.666 45.2175 148.5 45.3837C148.334 45.5499 148.108 45.6432 147.873 45.6432Z" fill="#3F3D56"/>
<path d="M222.053 43.1799H221.73L221.606 43.0771C222.014 42.5914 222.237 41.9778 222.237 41.3439C222.234 40.8224 222.077 40.3134 221.785 39.8813C221.493 39.4492 221.079 39.1135 220.596 38.9165C220.113 38.7195 219.583 38.6701 219.072 38.7746C218.561 38.8791 218.092 39.1328 217.725 39.5036C217.359 39.8743 217.11 40.3455 217.011 40.8576C216.912 41.3696 216.967 41.8996 217.169 42.3803C217.371 42.8611 217.712 43.2711 218.147 43.5585C218.582 43.8459 219.093 43.9978 219.614 43.995C220.246 43.9906 220.857 43.7677 221.344 43.3642L221.464 43.4669V43.793L223.499 45.831L224.108 45.2214L222.053 43.1799ZM219.614 43.1799C219.251 43.1813 218.896 43.075 218.593 42.8744C218.29 42.6738 218.054 42.388 217.914 42.0531C217.773 41.7181 217.736 41.3491 217.805 40.9927C217.875 40.6363 218.048 40.3085 218.304 40.0507C218.56 39.793 218.886 39.6169 219.242 39.5446C219.598 39.4724 219.967 39.5074 220.303 39.645C220.639 39.7827 220.927 40.0169 221.13 40.318C221.333 40.6192 221.442 40.9737 221.443 41.3368L221.443 41.3439C221.444 41.5836 221.399 41.8212 221.308 42.0432C221.218 42.2652 221.084 42.4672 220.916 42.6377C220.747 42.8082 220.547 42.9438 220.326 43.0368C220.105 43.1298 219.868 43.1784 219.628 43.1798C219.624 43.1799 219.619 43.1799 219.614 43.1799H219.614Z" fill="#3F3D56"/>
<path d="M167.369 73.289H150.177C149.143 73.289 148.152 72.8783 147.42 72.1471C146.689 71.416 146.278 70.4243 146.278 69.3903C146.278 68.3563 146.689 67.3646 147.42 66.6335C148.152 65.9023 149.143 65.4916 150.177 65.4916H167.369C168.403 65.4916 169.395 65.9023 170.126 66.6335C170.857 67.3646 171.268 68.3563 171.268 69.3903C171.268 70.4243 170.857 71.416 170.126 72.1471C169.395 72.8783 168.403 73.289 167.369 73.289Z" fill="#3B82F6"/>
<path d="M220 81.7955H148.405C147.841 81.7955 147.3 81.5715 146.901 81.1726C146.503 80.7738 146.278 80.2329 146.278 79.6689C146.278 79.1049 146.503 78.564 146.901 78.1652C147.3 77.7664 147.841 77.5423 148.405 77.5423H220C220.564 77.5423 221.105 77.7664 221.504 78.1652C221.902 78.564 222.127 79.1049 222.127 79.6689C222.127 80.2329 221.902 80.7738 221.504 81.1726C221.105 81.5715 220.564 81.7955 220 81.7955Z" fill="#E6E6E6"/>
<path d="M174.704 90.3019H148.405C147.841 90.3019 147.3 90.0779 146.901 89.6791C146.503 89.2803 146.278 88.7394 146.278 88.1753C146.278 87.6113 146.503 87.0704 146.901 86.6716C147.3 86.2728 147.841 86.0488 148.405 86.0488H174.704C175.268 86.0488 175.809 86.2728 176.208 86.6716C176.606 87.0704 176.83 87.6113 176.83 88.1753C176.83 88.7394 176.606 89.2803 176.208 89.6791C175.809 90.0779 175.268 90.3019 174.704 90.3019Z" fill="#E6E6E6"/>
<path d="M167.369 167.569H150.177C149.143 167.569 148.152 167.158 147.42 166.427C146.689 165.695 146.278 164.704 146.278 163.67C146.278 162.636 146.689 161.644 147.42 160.913C148.152 160.182 149.143 159.771 150.177 159.771H167.369C168.403 159.771 169.395 160.182 170.126 160.913C170.857 161.644 171.268 162.636 171.268 163.67C171.268 164.704 170.857 165.695 170.126 166.427C169.395 167.158 168.403 167.569 167.369 167.569Z" fill="#3B82F6"/>
<path d="M220 176.075H148.405C147.841 176.075 147.3 175.851 146.901 175.452C146.503 175.053 146.278 174.512 146.278 173.948C146.278 173.384 146.503 172.844 146.901 172.445C147.3 172.046 147.841 171.822 148.405 171.822H220C220.564 171.822 221.105 172.046 221.504 172.445C221.902 172.844 222.127 173.384 222.127 173.948C222.127 174.512 221.902 175.053 221.504 175.452C221.105 175.851 220.564 176.075 220 176.075Z" fill="#E6E6E6"/>
<path d="M174.704 184.581H148.405C147.841 184.581 147.3 184.357 146.901 183.959C146.503 183.56 146.278 183.019 146.278 182.455C146.278 181.891 146.503 181.35 146.901 180.951C147.3 180.552 147.841 180.328 148.405 180.328H174.704C175.268 180.328 175.809 180.552 176.208 180.951C176.606 181.35 176.83 181.891 176.83 182.455C176.83 183.019 176.606 183.56 176.208 183.959C175.809 184.357 175.268 184.581 174.704 184.581Z" fill="#E6E6E6"/>
<path d="M167.369 211.164H150.177C149.143 211.164 148.152 210.753 147.42 210.022C146.689 209.291 146.278 208.299 146.278 207.265C146.278 206.231 146.689 205.24 147.42 204.508C148.152 203.777 149.143 203.367 150.177 203.367H167.369C168.403 203.367 169.395 203.777 170.126 204.508C170.857 205.24 171.268 206.231 171.268 207.265C171.268 208.299 170.857 209.291 170.126 210.022C169.395 210.753 168.403 211.164 167.369 211.164Z" fill="#3B82F6"/>
<path d="M220 219.67H148.405C147.841 219.67 147.3 219.446 146.901 219.048C146.503 218.649 146.278 218.108 146.278 217.544C146.278 216.98 146.503 216.439 146.901 216.04C147.3 215.641 147.841 215.417 148.405 215.417H220C220.564 215.417 221.105 215.641 221.504 216.04C221.902 216.439 222.127 216.98 222.127 217.544C222.127 218.108 221.902 218.649 221.504 219.048C221.105 219.446 220.564 219.67 220 219.67Z" fill="#E6E6E6"/>
<path d="M174.704 228.177H148.405C147.841 228.177 147.3 227.953 146.901 227.554C146.503 227.155 146.278 226.614 146.278 226.05C146.278 225.486 146.503 224.945 146.901 224.547C147.3 224.148 147.841 223.924 148.405 223.924H174.704C175.268 223.924 175.809 224.148 176.208 224.547C176.606 224.945 176.83 225.486 176.83 226.05C176.83 226.614 176.606 227.155 176.208 227.554C175.809 227.953 175.268 228.177 174.704 228.177Z" fill="#E6E6E6"/>
<path d="M230.101 145.417H93.2911C92.4924 145.416 91.7266 145.098 91.1618 144.533C90.5971 143.968 90.2794 143.203 90.2784 142.404V105.188C90.2793 104.389 90.597 103.624 91.1618 103.059C91.7266 102.494 92.4924 102.176 93.2911 102.176H230.101C230.9 102.176 231.666 102.494 232.23 103.059C232.795 103.624 233.113 104.389 233.114 105.188V142.404C233.113 143.203 232.795 143.968 232.23 144.533C231.666 145.098 230.9 145.416 230.101 145.417Z" fill="#3B82F6"/>
<path d="M44.1074 189.692C45.4152 198.869 38.4897 239.522 39.2588 239.519L49.2041 239.466C49.5585 238.785 54.1236 216.849 55.5555 213.33C57.5545 208.446 59.5712 203.501 60.358 198.284C61.0988 193.386 60.7337 188.395 60.2517 183.465C60.2741 183.318 60.2613 183.168 60.2144 183.028C60.1675 182.887 60.0877 182.759 59.9818 182.656C59.8759 182.552 59.7467 182.474 59.6051 182.43C59.4634 182.386 59.3133 182.376 59.1671 182.402L45.8228 181.714C43.0725 181.572 42.4203 180.97 42.8385 183.671C43.1292 185.687 43.8168 187.651 44.1074 189.692Z" fill="#2F2E41"/>
<path d="M46.7302 167.381C44.0188 171.28 41.1762 175.767 42.0765 180.435C42.7605 183.979 45.4613 186.726 48.0096 189.296C58.196 199.524 78.2815 244.658 78.2815 244.658C87.9746 238.455 78.0506 244.835 87.8866 238.278C87.0147 238.211 67.2056 167.002 65.5646 166.906C58.9261 166.466 53.1985 165.818 46.7302 167.381Z" fill="#2F2E41"/>
<path d="M57.4547 130.272C56.0775 129.044 46.3992 125.256 46.3992 125.256C46.2213 125.232 46.0407 125.238 45.8645 125.272C45.3137 125.411 45.0624 126.096 45.18 126.649C45.2977 127.202 44.3325 136.298 44.0839 140.434C43.648 147.653 47.8991 164.006 47.8617 164.506C47.7161 166.289 46.9353 167.96 45.6613 169.217C45.9924 169.628 67.0211 170.452 68.4515 170.938C68.7402 170.572 66.8232 144.635 66.735 143.17C66.5879 140.945 59.2728 131.956 57.4547 130.272Z" fill="#E6E6E6"/>
<path d="M42.4562 186.552C42.9546 186.304 43.3925 185.949 43.7391 185.514C44.0857 185.078 44.3326 184.572 44.4624 184.031C44.5923 183.489 44.6018 182.926 44.4904 182.381C44.379 181.836 44.1494 181.321 43.8178 180.874L52.6902 131.771L44.4107 131.662L38.2493 180.219C37.5352 180.826 37.0686 181.673 36.9378 182.601C36.8071 183.529 37.0213 184.473 37.5398 185.254C38.0584 186.034 38.8453 186.598 39.7514 186.837C40.6575 187.076 41.6199 186.975 42.4562 186.552H42.4562Z" fill="#FFB8B8"/>
<path d="M42.3849 135.414C42.0396 135.439 41.6957 135.35 41.4067 135.159C40.914 134.737 44.9333 128.283 45.7272 128.187C48.311 127.89 50.9692 127.791 53.475 128.489C55.9809 129.187 58.3378 130.775 59.4578 133.125C59.9257 134.103 56.5338 139.026 54.992 138.303C53.1454 137.438 44.8163 135.475 42.3849 135.414Z" fill="#E6E6E6"/>
<path d="M51.5045 124.727C56.6407 124.727 60.8044 120.563 60.8044 115.427C60.8044 110.291 56.6407 106.127 51.5045 106.127C46.3684 106.127 42.2047 110.291 42.2047 115.427C42.2047 120.563 46.3684 124.727 51.5045 124.727Z" fill="#FFB8B8"/>
<path d="M42.37 130.804C43.6624 130.939 44.968 130.748 46.1674 130.248C47.3669 129.748 48.4218 128.956 49.2358 127.943C50.0498 126.93 50.5968 125.729 50.8268 124.45C51.0568 123.172 50.9624 121.855 50.5523 120.622C50.1822 119.51 49.5635 118.49 49.2246 117.367C48.8857 116.245 48.8765 114.917 49.6282 114.017C51.099 112.256 53.9338 113.364 56.2012 113.014C58.6172 112.641 60.4708 110.323 60.6641 107.886C60.8574 105.449 59.5872 103.037 57.6963 101.488C55.8054 99.9384 53.3667 99.1754 50.9337 98.9364C47.8092 98.6294 44.6583 99.132 41.7844 100.396C38.9104 101.66 36.4103 103.642 34.5246 106.152C32.639 108.663 31.4314 111.616 31.0181 114.728C30.6049 117.841 30.9998 121.007 32.165 123.922C33.1815 126.466 34.8418 128.834 37.2 130.227C39.5582 131.62 42.6729 131.888 45.0232 130.482" fill="#2F2E41"/>
<path d="M141.946 119.188H118.18C116.671 119.188 115.443 117.439 115.443 115.29C115.443 113.14 116.671 111.391 118.18 111.391H141.946C143.456 111.391 144.684 113.14 144.684 115.29C144.684 117.439 143.456 119.188 141.946 119.188Z" fill="white"/>
<path d="M205.823 127.695H117.57C117.006 127.695 116.465 127.471 116.066 127.072C115.667 126.673 115.443 126.132 115.443 125.568C115.443 125.004 115.667 124.463 116.066 124.064C116.465 123.666 117.006 123.442 117.57 123.442H205.823C206.387 123.442 206.928 123.666 207.326 124.064C207.725 124.463 207.949 125.004 207.949 125.568C207.949 126.132 207.725 126.673 207.326 127.072C206.928 127.471 206.387 127.695 205.823 127.695Z" fill="#E6E6E6"/>
<path d="M160.527 136.201H117.57C117.006 136.201 116.465 135.977 116.066 135.578C115.667 135.179 115.443 134.639 115.443 134.075C115.443 133.511 115.667 132.97 116.066 132.571C116.465 132.172 117.006 131.948 117.57 131.948H160.527C161.091 131.948 161.632 132.172 162.03 132.571C162.429 132.97 162.653 133.511 162.653 134.075C162.653 134.639 162.429 135.179 162.03 135.578C161.632 135.977 161.091 136.201 160.527 136.201Z" fill="#E6E6E6"/>
<path d="M290 253.696H10V254.405H290V253.696Z" fill="#3F3D56"/>
</g>
<defs>
<clipPath id="clip0">
<rect width="280" height="248.81" fill="white" transform="translate(10 5.59494)"/>
</clipPath>
</defs>
</svg>
