<svg width="300" height="260" viewBox="0 0 300 260" fill="none" xmlns="http://www.w3.org/2000/svg">
<g clip-path="url(#clip0)">
<path d="M214.944 204.304C217.167 205.085 219.554 205.281 221.875 204.872C224.195 204.464 226.372 203.464 228.194 201.97C232.835 198.075 234.29 191.658 235.473 185.716L238.975 168.141L231.644 173.189C226.372 176.819 220.981 180.566 217.33 185.824C213.68 191.082 212.087 198.26 215.02 203.949" fill="#E6E6E6"/>
<path d="M215.571 225.582C214.829 220.178 214.066 214.703 214.586 209.24C215.049 204.389 216.529 199.65 219.542 195.765C221.142 193.707 223.088 191.943 225.293 190.553C225.869 190.19 226.398 191.102 225.825 191.463C222.009 193.875 219.057 197.437 217.396 201.634C215.56 206.302 215.266 211.391 215.582 216.349C215.773 219.348 216.179 222.327 216.587 225.302C216.619 225.437 216.599 225.579 216.531 225.699C216.462 225.819 216.351 225.909 216.219 225.95C216.084 225.987 215.941 225.968 215.819 225.9C215.698 225.831 215.609 225.717 215.571 225.582Z" fill="#F2F2F2"/>
<path d="M222.718 216.018C223.671 217.467 224.982 218.647 226.523 219.442C228.065 220.238 229.785 220.623 231.518 220.561C235.973 220.349 239.687 217.24 243.031 214.288L252.92 205.557L246.375 205.243C241.668 205.018 236.84 204.808 232.357 206.26C227.874 207.711 223.74 211.204 222.92 215.844" fill="#E6E6E6"/>
<path d="M213.474 228.689C217.045 222.37 221.188 215.347 228.59 213.102C230.648 212.48 232.806 212.257 234.948 212.445C235.623 212.504 235.454 213.544 234.781 213.486C231.19 213.188 227.607 214.136 224.634 216.17C221.773 218.118 219.546 220.825 217.66 223.696C216.506 225.455 215.471 227.288 214.437 229.119C214.106 229.704 213.139 229.281 213.474 228.689V228.689Z" fill="#F2F2F2"/>
<path d="M125.449 184.294C121.068 185.834 116.364 186.22 111.79 185.414C107.217 184.609 102.927 182.639 99.3361 179.694C90.1898 172.017 87.3222 159.37 84.9889 147.659C82.6885 136.113 80.388 124.567 78.0875 113.021L92.5363 122.97C102.927 130.125 113.552 137.509 120.746 147.872C127.941 158.235 131.081 172.382 125.301 183.595" fill="#E6E6E6"/>
<path d="M124.214 226.231C125.676 215.578 127.18 204.789 126.154 194.023C125.243 184.461 122.326 175.122 116.387 167.465C113.235 163.408 109.399 159.932 105.052 157.193C103.919 156.478 102.875 158.274 104.004 158.986C111.525 163.74 117.343 170.759 120.618 179.032C124.235 188.232 124.816 198.26 124.192 208.033C123.815 213.943 123.016 219.815 122.211 225.679C122.148 225.944 122.188 226.223 122.322 226.46C122.457 226.697 122.676 226.875 122.937 226.956C123.202 227.027 123.485 226.991 123.724 226.856C123.963 226.72 124.139 226.495 124.214 226.231Z" fill="#F2F2F2"/>
<path d="M110.128 207.381C108.249 210.237 105.666 212.561 102.629 214.129C99.5907 215.697 96.2002 216.456 92.7838 216.333C84.0037 215.916 76.6838 209.788 70.0946 203.971L50.605 186.763L63.5039 186.145C72.78 185.702 82.2954 185.287 91.1306 188.148C99.9658 191.009 108.114 197.893 109.73 207.038" fill="#E6E6E6"/>
<path d="M128.347 232.354C121.308 219.899 113.144 206.057 98.5553 201.633C94.499 200.407 90.2458 199.968 86.0245 200.34C84.6941 200.454 85.0264 202.505 86.3543 202.39C93.43 201.803 100.492 203.671 106.352 207.681C111.99 211.519 116.38 216.855 120.096 222.513C122.372 225.979 124.411 229.592 126.45 233.2C127.101 234.353 129.006 233.521 128.347 232.354Z" fill="#F2F2F2"/>
<path d="M74.0196 63.7372L13.4154 51.04L12.6278 50.8754C12.2267 50.7908 11.8099 50.8211 11.4252 50.9628C11.0406 51.1045 10.7038 51.352 10.4535 51.6766C10.2032 52.0013 10.0497 52.39 10.0105 52.798C9.97127 53.206 10.0481 53.6169 10.232 53.9832L34.5533 102.643C34.7107 102.956 34.9409 103.226 35.2245 103.431C35.5082 103.636 35.8369 103.77 36.1831 103.821C36.5304 103.873 36.8851 103.84 37.2166 103.724C37.548 103.608 37.8463 103.413 38.0856 103.156L54.6729 85.4573C54.7908 85.3282 54.9342 85.225 55.0941 85.154C55.2539 85.0831 55.4267 85.046 55.6015 85.0451C55.8392 85.0404 56.0737 85.1003 56.2798 85.2186C56.486 85.3368 56.6562 85.5089 56.7721 85.7164L60.2286 92.02C60.4494 92.4404 60.8044 92.7748 61.2372 92.9701C61.67 93.1653 62.1557 93.2101 62.6169 93.0974L62.6339 93.0935C63.1008 92.9917 63.52 92.7359 63.8239 92.3671C64.1279 91.9984 64.299 91.5381 64.3098 91.0603L64.908 76.4585C64.9151 76.2763 64.9595 76.0975 65.0385 75.9332C65.1234 75.7706 65.2391 75.626 65.3792 75.5075L74.9619 67.5455C75.2769 67.2839 75.5117 66.9387 75.6396 66.5497C75.7674 66.1606 75.7831 65.7435 75.6847 65.3459C75.5864 64.9484 75.378 64.5867 75.0835 64.3021C74.789 64.0176 74.4203 63.8218 74.0196 63.7372V63.7372ZM74.408 66.8768L64.8253 74.8387C64.7004 74.9406 64.5874 75.0561 64.4884 75.1832L13.3137 52.34C13.2686 52.3193 13.2215 52.3031 13.1732 52.2917C12.976 52.2421 12.7678 52.263 12.5844 52.3507C12.401 52.4385 12.2541 52.5875 12.169 52.7722C12.0838 52.9568 12.0659 53.1653 12.1183 53.3618C12.1707 53.5582 12.29 53.7301 12.4558 53.8479L54.6028 84.4241C54.3905 84.536 54.1991 84.6838 54.0371 84.8608L37.45 102.56C37.3061 102.713 37.1273 102.829 36.9288 102.899C36.7303 102.968 36.518 102.989 36.3099 102.958C36.1019 102.928 35.9042 102.848 35.7337 102.725C35.5631 102.602 35.4248 102.44 35.3305 102.252L11.0092 53.5921C10.9004 53.3723 10.8556 53.1263 10.8799 52.8822C10.9041 52.6381 10.9964 52.4057 11.1463 52.2116C11.2962 52.0174 11.4975 51.8692 11.7275 51.7839C11.9575 51.6986 12.2068 51.6796 12.4471 51.7291L13.2533 51.8983L73.8386 64.5909C74.0792 64.6415 74.3006 64.7588 74.4776 64.9294C74.6546 65.1 74.78 65.317 74.8394 65.5555C74.8988 65.794 74.8898 66.0445 74.8135 66.2781C74.7372 66.5118 74.5967 66.7193 74.4079 66.8768L74.408 66.8768Z" fill="#CCCCCC"/>
<path d="M74.0196 63.7372L13.4154 51.04L12.6278 50.8754C12.2267 50.7908 11.8099 50.8211 11.4252 50.9628C11.0406 51.1045 10.7038 51.352 10.4535 51.6766C10.2032 52.0013 10.0497 52.39 10.0105 52.798C9.97127 53.206 10.0481 53.6169 10.232 53.9832L34.5533 102.643C34.7107 102.956 34.9409 103.226 35.2245 103.431C35.5082 103.636 35.8369 103.77 36.1831 103.821C36.5304 103.873 36.8851 103.84 37.2166 103.724C37.548 103.608 37.8463 103.413 38.0856 103.156L54.6729 85.4573C54.7908 85.3282 54.9342 85.225 55.0941 85.154C55.2539 85.0831 55.4267 85.046 55.6015 85.0451C55.8392 85.0404 56.0737 85.1003 56.2798 85.2186C56.486 85.3368 56.6562 85.5089 56.7721 85.7164L60.2286 92.02C60.4494 92.4404 60.8044 92.7748 61.2372 92.9701C61.67 93.1653 62.1557 93.2101 62.6169 93.0974L62.6339 93.0935C63.1008 92.9917 63.52 92.7359 63.8239 92.3671C64.1279 91.9984 64.299 91.5381 64.3098 91.0603L64.908 76.4585C64.9151 76.2763 64.9595 76.0975 65.0385 75.9332C65.1234 75.7706 65.2391 75.626 65.3792 75.5075L74.9619 67.5455C75.2769 67.2839 75.5117 66.9387 75.6396 66.5497C75.7674 66.1606 75.7831 65.7435 75.6847 65.3459C75.5864 64.9484 75.378 64.5867 75.0835 64.3021C74.789 64.0176 74.4203 63.8218 74.0196 63.7372V63.7372ZM74.408 66.8768L64.8253 74.8387C64.7004 74.9406 64.5874 75.0561 64.4884 75.1832C64.399 75.2963 64.3221 75.4186 64.2587 75.548C64.1923 75.6804 64.1402 75.8195 64.1033 75.9629L64.1043 75.9671C64.0653 76.1165 64.0432 76.2698 64.0384 76.4241L63.4404 91.0259C63.4364 91.313 63.3348 91.5901 63.1523 91.8118C62.9698 92.0334 62.7174 92.1864 62.4364 92.2455L62.4279 92.2474C62.1512 92.3179 61.8587 92.2929 61.598 92.1763C61.3373 92.0598 61.1235 91.8586 60.9915 91.6053L57.534 85.2975C57.3559 84.9731 57.0978 84.6995 56.7843 84.5028C56.4707 84.3062 56.1121 84.1928 55.7425 84.1737L55.7384 84.1746C55.6886 84.1725 55.6391 84.1704 55.5905 84.1725C55.2457 84.1748 54.9067 84.2611 54.6028 84.4241C54.3906 84.536 54.1992 84.6838 54.0371 84.8608L37.45 102.56C37.3061 102.713 37.1273 102.829 36.9288 102.899C36.7303 102.968 36.518 102.989 36.3099 102.958C36.1019 102.928 35.9042 102.848 35.7337 102.725C35.5631 102.602 35.4248 102.44 35.3305 102.252L11.0092 53.5921C10.9004 53.3723 10.8556 53.1263 10.8799 52.8822C10.9041 52.6381 10.9964 52.4057 11.1463 52.2116C11.2962 52.0174 11.4975 51.8692 11.7275 51.7839C11.9575 51.6986 12.2068 51.6796 12.4471 51.7291L13.2533 51.8983L73.8386 64.5909C74.0792 64.6415 74.3006 64.7588 74.4776 64.9294C74.6546 65.1 74.78 65.317 74.8394 65.5555C74.8988 65.794 74.8898 66.0445 74.8135 66.2781C74.7372 66.5118 74.5967 66.7193 74.4079 66.8768L74.408 66.8768Z" fill="#3F3D56"/>
<path d="M64.682 75.2687L64.3271 76.0638L64.1043 75.9671L64.1033 75.9629L12.9692 53.1418L55.7384 84.1746L55.7425 84.1737L55.8558 84.2595L55.3465 84.9647L54.6029 84.4241L12.4558 53.8479C12.2901 53.7302 12.1707 53.5582 12.1183 53.3618C12.0659 53.1653 12.0838 52.9568 12.1689 52.7721C12.2541 52.5875 12.401 52.4385 12.5844 52.3507C12.7678 52.263 12.9761 52.2421 13.1732 52.2917C13.2216 52.3031 13.2686 52.3194 13.3138 52.34L64.4884 75.1832L64.682 75.2687Z" fill="#3F3D56"/>
<path d="M196.26 136.104L198.471 157.727L198.515 158.171L199.172 164.584L204.571 217.383V217.392L205.62 227.636C205.21 228.186 204.847 228.77 204.536 229.381C203.585 231.258 203.12 233.344 203.184 235.447C203.247 237.55 203.838 239.603 204.901 241.419C207.535 240.757 210.133 240.002 212.694 239.155C217.993 237.412 223.16 235.294 228.158 232.816C227.638 229.956 226.144 227.364 223.93 225.481L218.51 160.357L218.036 154.645L216.49 136.104H196.26Z" fill="#FFB8B8"/>
<path d="M211.761 77.2084C222.939 66.0304 222.939 47.9072 211.761 36.7292C200.583 25.5512 182.46 25.5512 171.282 36.7292C160.104 47.9072 160.104 66.0304 171.282 77.2084C182.46 88.3864 200.583 88.3864 211.761 77.2084Z" fill="#FFB8B8"/>
<path d="M138.171 175.106C138.175 175.163 138.18 175.22 138.184 175.272C138.279 176.389 138.729 177.445 139.468 178.288C140.206 179.131 141.195 179.716 142.289 179.956L185.006 189.286C185.376 189.367 185.754 189.408 186.133 189.408C187.279 189.407 188.393 189.031 189.305 188.337C190.216 187.642 190.874 186.668 191.179 185.564C191.27 185.224 191.371 184.876 191.479 184.514V184.51C192.92 179.617 195.493 172.956 199.172 164.584C200.004 162.69 200.893 160.707 201.841 158.633C202.015 158.25 202.193 157.862 202.368 157.475C204.322 153.23 206.503 148.636 208.911 143.692C210.089 141.275 210.979 138.728 211.562 136.104C213.113 129.175 212.501 121.937 209.808 115.368C209.259 114.03 208.627 112.729 207.914 111.472C205.102 106.515 201.119 102.324 196.311 99.2641C191.504 96.2047 186.02 94.3706 180.339 93.9226C179.438 93.8486 178.541 93.8138 177.64 93.8138C168.626 93.8535 159.974 97.3647 153.482 103.618C149.651 107.332 146.743 111.891 144.988 116.931C144.875 117.249 144.771 117.571 144.666 117.893C143.058 122.992 141.767 128.185 140.8 133.444C140.222 136.565 139.751 139.643 139.373 142.643C138.045 153.41 137.643 164.271 138.171 175.106Z" fill="#3B82F6"/>
<path d="M119.359 229.804C145.311 244.554 175.956 248.715 204.901 241.419C207.535 240.757 210.133 240.003 212.694 239.155C210.422 231.746 207.709 224.478 204.571 217.392V217.383C199.337 205.651 194.531 198.472 192.189 195.302C191.804 194.777 191.551 194.168 191.45 193.525C191.349 192.882 191.404 192.224 191.61 191.606L192.337 189.425C192.614 188.6 192.68 187.719 192.531 186.861C192.381 186.004 192.02 185.197 191.479 184.514V184.51C191.432 184.449 191.379 184.388 191.327 184.327C172.298 162.647 139.125 174.475 138.789 174.597L138.624 174.658L138.519 174.802C138.406 174.958 138.293 175.111 138.184 175.272C129.19 187.875 123.212 207.248 119.359 229.804Z" fill="#2F2E41"/>
<path d="M80.2453 90.2175C80.3884 90.8463 80.4816 91.4854 80.5242 92.1289L130.586 121.009L142.754 114.004L155.727 130.987L135.39 145.481C133.747 146.652 131.769 147.259 129.752 147.21C127.735 147.16 125.789 146.458 124.205 145.209L72.5821 104.483C70.2523 105.346 67.7153 105.478 65.3083 104.864C62.9014 104.249 60.7386 102.916 59.1077 101.042C57.4768 99.1684 56.455 96.8424 56.1783 94.3737C55.9016 91.9049 56.383 89.4104 57.5586 87.222C58.7342 85.0336 60.5482 83.2549 62.7593 82.1225C64.9704 80.9902 67.4739 80.5579 69.9367 80.8831C72.3995 81.2083 74.705 82.2755 76.5464 83.943C78.3879 85.6104 79.678 87.7989 80.2453 90.2175Z" fill="#FFB8B8"/>
<path d="M131.353 120.566V120.57C131.535 121.226 131.842 121.839 132.259 122.377L140.8 133.444L144.871 138.724L148.441 143.348C148.901 143.944 149.484 144.435 150.151 144.786C150.818 145.137 151.553 145.34 152.305 145.381C153.057 145.422 153.81 145.301 154.511 145.025C155.212 144.749 155.846 144.326 156.369 143.783L169.333 130.322L174.684 124.763C177.724 122.391 179.699 118.91 180.176 115.083C180.654 111.257 179.594 107.398 177.23 104.351C174.866 101.305 171.391 99.3203 167.566 98.8327C163.741 98.3452 159.878 99.3943 156.826 101.75L153.482 103.618L133.852 114.597C132.83 115.171 132.028 116.07 131.575 117.151C131.122 118.233 131.044 119.435 131.353 120.566H131.353Z" fill="#3B82F6"/>
<path d="M187.975 127.505L188.793 153.648L188.798 153.814C188.821 154.567 189.006 155.307 189.341 155.982C189.676 156.658 190.153 157.253 190.739 157.727C191.325 158.202 192.006 158.544 192.737 158.731C193.467 158.918 194.229 158.946 194.971 158.811L198.515 158.171L199.42 158.006H199.425L202.368 157.475L218.036 154.645L221.035 154.105C221.777 153.97 222.48 153.678 223.098 153.247C223.716 152.816 224.234 152.257 224.617 151.608C225 150.96 225.239 150.236 225.317 149.487C225.395 148.737 225.311 147.98 225.071 147.266L216.621 122.246C215.914 118.456 213.734 115.101 210.557 112.917C207.381 110.732 203.467 109.896 199.676 110.592C195.884 111.288 192.523 113.46 190.329 116.63C188.136 119.801 187.289 123.712 187.975 127.505Z" fill="#3B82F6"/>
<path d="M186.991 50.3851C179.634 55.4202 169.974 60.5959 162.461 55.234C157.527 51.7133 155.973 45.1937 157.973 39.4723C161.571 29.1836 171.456 24.6541 180.909 21.1821C193.197 16.6685 206.577 13.0777 219.263 16.3101C231.949 19.5425 243.16 31.8248 240.87 44.714C239.028 55.0792 229.251 63.7039 230.639 74.1395C232.036 84.6421 243.847 90.1704 254.275 92.0475C264.702 93.9246 276.371 94.5277 283.865 102.018C293.424 111.572 291.037 128.65 282.042 138.738C273.046 148.826 259.472 153.399 246.318 156.508C228.891 160.626 210.041 162.791 193.489 155.956C176.937 149.12 164.056 130.72 168.851 113.466C170.877 106.178 175.648 100.018 180.259 94.022C184.87 88.0256 189.539 81.7551 191.298 74.3982C192.763 68.2674 191.679 61.1493 187.613 56.5505C186.873 55.7455 186.408 54.727 186.284 53.641C186.159 52.5551 186.382 51.4577 186.92 50.5063L186.991 50.3851Z" fill="#2F2E41"/>
</g>
<defs>
<clipPath id="clip0">
<rect width="280" height="229.864" fill="white" transform="translate(10 15.0679)"/>
</clipPath>
</defs>
</svg>
