<svg width="300" height="260" viewBox="0 0 300 260" fill="none" xmlns="http://www.w3.org/2000/svg">
<g clip-path="url(#clip0)">
<g clip-path="url(#clip1)">
<path d="M141.817 200.956H209.841C212.526 200.956 212.531 196.783 209.841 196.783H141.817C139.132 196.783 139.128 200.956 141.817 200.956Z" fill="#E6E6E6"/>
<path d="M123.452 110.265H55.657C54.9409 110.266 54.2543 110.551 53.7479 111.057C53.2415 111.564 52.9566 112.25 52.9557 112.966V126.434C56.3375 126.514 58.5326 129.304 59.0645 132.692V144.902H59.3213C59.3621 144.902 59.4012 144.918 59.4301 144.947C59.459 144.976 59.4752 145.015 59.4754 145.056V151.553C59.4752 151.593 59.459 151.632 59.4301 151.661C59.4012 151.69 59.3621 151.706 59.3213 151.707H59.0645V190.975C59.0645 191.838 59.0558 193.412 59.0558 193.412H123.452C124.168 193.411 124.855 193.126 125.361 192.62C125.868 192.113 126.152 191.427 126.153 190.71V112.966C126.152 112.25 125.868 111.563 125.361 111.057C124.855 110.551 124.168 110.266 123.452 110.265Z" fill="#3B82F6"/>
<path d="M249.413 65.9499V139.646H130.842V107.199C130.841 105.726 130.255 104.313 129.213 103.271C128.171 102.23 126.759 101.644 125.285 101.642H103.048V65.9499H249.413Z" fill="#3B82F6"/>
<path d="M256.734 150.035H130.975V149.521H256.22V62.7299C256.219 61.7087 255.813 60.7297 255.091 60.0076C254.368 59.2855 253.389 58.8793 252.368 58.8782H98.5572C97.536 58.8793 96.557 59.2855 95.8349 60.0076C95.1129 60.7297 94.7067 61.7087 94.7055 62.7299V101.31H94.192V62.7299C94.1933 61.5725 94.6536 60.463 95.472 59.6446C96.2903 58.8262 97.3999 58.3659 98.5572 58.3646H252.368C253.526 58.3659 254.635 58.8262 255.454 59.6446C256.272 60.463 256.732 61.5725 256.734 62.7299V150.035Z" fill="#3F3D56"/>
<path d="M244.817 165.699H130.974V165.185H244.817C247.841 165.182 250.739 163.979 252.876 161.842C255.014 159.704 256.216 156.806 256.22 153.783V150.035H130.974V149.521H256.733V153.783C256.73 156.942 255.473 159.971 253.239 162.204C251.005 164.438 247.977 165.695 244.817 165.699Z" fill="#3F3D56"/>
<path d="M211.031 190.863C204.685 184.769 200.51 176.818 199.168 165.699H152.394C151.919 176.101 147.77 183.903 140.287 190.836L139.496 190.863C147.217 183.866 151.469 176.007 151.892 165.431L151.902 165.185H199.624L199.651 165.412C200.969 176.72 205.231 184.722 211.734 190.822L211.031 190.863Z" fill="#3F3D56"/>
<path d="M125.161 201.487H53.1094V200.973H125.161C126.634 200.971 128.047 200.385 129.088 199.344C130.13 198.302 130.716 196.89 130.718 195.417V107.317C130.716 105.844 130.13 104.431 129.088 103.39C128.047 102.348 126.634 101.762 125.161 101.76H53.1094C51.6363 101.762 50.2239 102.348 49.1823 103.39C48.1406 104.431 47.5546 105.844 47.553 107.317V126.329H47.0394V107.317C47.0412 105.708 47.6813 104.165 48.8193 103.027C49.9573 101.889 51.5001 101.249 53.1094 101.247H125.161C126.771 101.249 128.313 101.889 129.451 103.027C130.589 104.165 131.229 105.708 131.231 107.317V195.417C131.229 197.026 130.589 198.569 129.451 199.707C128.313 200.845 126.771 201.485 125.161 201.487Z" fill="#3F3D56"/>
<path d="M89.1353 107.744C88.7909 107.744 88.4542 107.642 88.1679 107.451C87.8816 107.259 87.6584 106.987 87.5266 106.669C87.3948 106.351 87.3603 106.001 87.4275 105.663C87.4947 105.325 87.6605 105.015 87.904 104.772C88.1475 104.528 88.4578 104.362 88.7956 104.295C89.1333 104.228 89.4834 104.262 89.8016 104.394C90.1198 104.526 90.3917 104.749 90.583 105.035C90.7744 105.322 90.8765 105.658 90.8765 106.003C90.876 106.464 90.6924 106.907 90.3659 107.233C90.0395 107.56 89.5969 107.744 89.1353 107.744ZM89.1353 104.664C88.8705 104.664 88.6117 104.743 88.3915 104.89C88.1713 105.037 87.9998 105.246 87.8984 105.491C87.7971 105.735 87.7706 106.004 87.8223 106.264C87.8739 106.524 88.0014 106.762 88.1887 106.949C88.3759 107.137 88.6144 107.264 88.8741 107.316C89.1338 107.368 89.403 107.341 89.6476 107.24C89.8923 107.138 90.1013 106.967 90.2484 106.747C90.3955 106.526 90.4741 106.268 90.474 106.003C90.4736 105.648 90.3325 105.308 90.0815 105.057C89.8305 104.806 89.4902 104.664 89.1353 104.664Z" fill="#3F3D56"/>
<path d="M89.1353 199.518C88.6959 199.518 88.2663 199.388 87.901 199.144C87.5356 198.9 87.2508 198.553 87.0826 198.147C86.9145 197.741 86.8705 197.294 86.9562 196.863C87.0419 196.432 87.2535 196.036 87.5642 195.725C87.875 195.415 88.2709 195.203 88.7018 195.117C89.1328 195.032 89.5795 195.076 89.9855 195.244C90.3915 195.412 90.7385 195.697 90.9827 196.062C91.2268 196.427 91.3571 196.857 91.3571 197.296C91.3565 197.885 91.1222 198.45 90.7056 198.867C90.2891 199.283 89.7244 199.517 89.1353 199.518ZM89.1353 195.588C88.7975 195.588 88.4672 195.688 88.1863 195.876C87.9053 196.064 87.6864 196.331 87.5571 196.643C87.4278 196.955 87.394 197.298 87.4599 197.63C87.5258 197.961 87.6885 198.265 87.9274 198.504C88.1663 198.743 88.4707 198.906 88.8021 198.972C89.1335 199.038 89.4769 199.004 89.7891 198.875C90.1012 198.745 90.368 198.526 90.5557 198.245C90.7434 197.964 90.8436 197.634 90.8436 197.296C90.843 196.843 90.6629 196.409 90.3426 196.089C90.0224 195.769 89.5882 195.589 89.1353 195.588Z" fill="#3F3D56"/>
<path d="M52.3859 201.635H28.5348C26.7392 201.633 25.0178 200.919 23.7481 199.649C22.4785 198.38 21.7643 196.658 21.7623 194.863V133.102C21.7643 131.306 22.4785 129.585 23.7481 128.315C25.0178 127.046 26.7392 126.331 28.5347 126.329H52.3859C54.1814 126.331 55.9029 127.046 57.1725 128.315C58.4422 129.585 59.1563 131.306 59.1584 133.102V144.154C59.28 144.205 59.3839 144.291 59.457 144.4C59.5301 144.51 59.5692 144.639 59.5693 144.771L59.5693 151.962C59.5692 152.094 59.5301 152.223 59.457 152.332C59.3839 152.442 59.28 152.528 59.1584 152.579V194.863C59.1563 196.658 58.4421 198.38 57.1725 199.65C55.9028 200.919 54.1814 201.633 52.3859 201.635ZM28.5347 126.843C26.8754 126.845 25.2845 127.505 24.1111 128.678C22.9377 129.852 22.2777 131.442 22.2758 133.102V194.863C22.2777 196.522 22.9377 198.113 24.1111 199.287C25.2845 200.46 26.8754 201.12 28.5348 201.122H52.3859C54.0452 201.12 55.6361 200.46 56.8095 199.287C57.9829 198.113 58.6429 196.522 58.6448 194.863V152.116H58.9016C58.9425 152.116 58.9816 152.1 59.0105 152.071C59.0394 152.042 59.0557 152.003 59.0557 151.962L59.0558 144.771C59.0557 144.73 59.0395 144.691 59.0106 144.662C58.9817 144.633 58.9425 144.616 58.9016 144.616H58.6448V133.102C58.6429 131.442 57.9829 129.852 56.8095 128.678C55.6362 127.505 54.0453 126.845 52.3859 126.843H28.5347Z" fill="#3F3D56"/>
<path d="M52.6488 128.281H49.5354C49.6786 128.632 49.7333 129.013 49.6946 129.39C49.6559 129.767 49.5251 130.129 49.3136 130.444C49.1022 130.758 48.8166 131.016 48.482 131.195C48.1474 131.373 47.7742 131.466 47.3951 131.466H33.7311C33.352 131.466 32.9787 131.373 32.6441 131.195C32.3096 131.016 32.024 130.758 31.8125 130.444C31.6011 130.129 31.4702 129.767 31.4316 129.39C31.3929 129.013 31.4475 128.632 31.5907 128.281H28.6828C27.3923 128.281 26.1547 128.794 25.2421 129.706C24.3296 130.619 23.817 131.857 23.817 133.147V194.818C23.817 196.108 24.3296 197.346 25.2421 198.258C26.1547 199.171 27.3923 199.683 28.6828 199.683H52.6488C53.9393 199.683 55.177 199.171 56.0895 198.258C57.002 197.346 57.5147 196.108 57.5147 194.818V133.147C57.5147 131.857 57.002 130.619 56.0895 129.706C55.177 128.794 53.9393 128.281 52.6488 128.281Z" fill="#3B82F6"/>
<path d="M309.694 201.535H-9.6942C-9.73444 201.535 -9.77431 201.527 -9.81152 201.512C-9.84873 201.497 -9.88256 201.474 -9.91106 201.446C-9.93956 201.417 -9.96218 201.384 -9.97761 201.346C-9.99304 201.309 -10.001 201.269 -10.001 201.229C-10.001 201.189 -9.99304 201.149 -9.97761 201.112C-9.96218 201.075 -9.93956 201.041 -9.91106 201.013C-9.88256 200.984 -9.84873 200.962 -9.81152 200.946C-9.77431 200.931 -9.73444 200.923 -9.6942 200.923H309.694C309.735 200.923 309.774 200.931 309.812 200.946C309.849 200.962 309.883 200.984 309.911 201.013C309.94 201.041 309.962 201.075 309.978 201.112C309.993 201.149 310.001 201.189 310.001 201.229C310.001 201.269 309.993 201.309 309.978 201.346C309.962 201.384 309.94 201.417 309.911 201.446C309.883 201.474 309.849 201.497 309.812 201.512C309.774 201.527 309.735 201.535 309.694 201.535Z" fill="#3F3D56"/>
<path d="M211.19 201.391H140.062C139.353 201.391 138.651 201.252 137.997 200.982C137.342 200.711 136.747 200.314 136.246 199.813C135.745 199.312 135.347 198.718 135.076 198.063C134.805 197.409 134.665 196.707 134.665 195.999C134.665 195.29 134.805 194.588 135.076 193.934C135.347 193.279 135.745 192.685 136.246 192.184C136.747 191.683 137.342 191.286 137.997 191.015C138.651 190.745 139.353 190.606 140.062 190.606H211.19C212.619 190.607 213.989 191.176 215 192.187C216.01 193.198 216.578 194.569 216.578 195.999C216.578 197.428 216.01 198.799 215 199.81C213.989 200.821 212.619 201.39 211.19 201.391ZM140.062 191.12C138.768 191.12 137.527 191.634 136.612 192.549C135.697 193.464 135.183 194.705 135.183 195.999C135.183 197.292 135.697 198.533 136.612 199.448C137.527 200.363 138.768 200.877 140.062 200.877H211.19C212.484 200.877 213.725 200.363 214.639 199.448C215.554 198.533 216.068 197.292 216.068 195.999C216.068 194.705 215.554 193.464 214.639 192.549C213.725 191.634 212.484 191.12 211.19 191.12H140.062Z" fill="#3F3D56"/>
<path d="M262.836 160.334L264.828 164.499L281.84 158.797L278.9 152.65L262.836 160.334Z" fill="#FFB8B8"/>
<path d="M264.802 174.381L258.541 161.291L263.599 158.872L267.625 167.291C268.218 168.53 268.294 169.953 267.837 171.248C267.38 172.543 266.427 173.603 265.189 174.196L264.802 174.381Z" fill="#2F2E41"/>
<path d="M258.825 197.528L263.439 197.372L263.633 179.411L258.225 179.73L258.825 197.528Z" fill="#FFB8B8"/>
<path d="M272.392 201.602H257.882V195.996H267.215C268.588 195.996 269.905 196.542 270.876 197.513C271.847 198.484 272.392 199.801 272.392 201.174V201.602Z" fill="#2F2E41"/>
<path d="M259.205 194.829C258.818 194.829 258.442 194.7 258.138 194.461C257.833 194.222 257.617 193.888 257.525 193.513C254.997 183.357 245.592 132.187 253.909 122.137L253.981 122.049L254.092 122.021C254.675 121.874 265.681 118.466 272.139 123.785L272.215 123.847L275.809 134.251L285.498 148.633C286.028 149.421 286.396 150.307 286.577 151.239C286.759 152.171 286.752 153.131 286.556 154.06C286.361 154.989 285.981 155.87 285.438 156.649C284.896 157.429 284.203 158.092 283.4 158.599L270.677 166.628C270.37 166.813 270.012 166.899 269.654 166.874C269.296 166.849 268.954 166.713 268.676 166.487C268.442 166.293 268.263 166.043 268.154 165.759L265.481 159.075C265.321 158.67 265.318 158.219 265.473 157.812C265.628 157.405 265.929 157.071 266.318 156.874L272.278 153.893C272.442 153.803 272.583 153.679 272.693 153.528C272.803 153.378 272.879 153.205 272.915 153.022C272.931 152.857 272.907 152.69 272.845 152.536C272.782 152.382 272.684 152.246 272.557 152.138L265.638 146.173C265.484 146.04 265.294 145.955 265.093 145.929C264.892 145.902 264.687 145.935 264.504 146.023C264.321 146.111 264.167 146.251 264.063 146.425C263.958 146.599 263.906 146.8 263.914 147.003L265.629 192.285C265.645 192.71 265.505 193.126 265.234 193.455C264.964 193.784 264.583 194.002 264.163 194.068L259.483 194.807C259.391 194.822 259.298 194.829 259.205 194.829Z" fill="#2F2E41"/>
<path d="M271.141 125.631C271.102 125.631 271.063 125.629 271.023 125.626L253.767 124.348C253.528 124.331 253.296 124.258 253.088 124.137C252.881 124.015 252.705 123.847 252.574 123.646C252.442 123.445 252.358 123.217 252.329 122.978C252.3 122.74 252.326 122.498 252.406 122.272C253.468 119.211 253.598 115.905 252.78 112.771C251.656 108.339 251.63 100.1 251.714 95.5829C251.733 94.8171 252.04 94.0867 252.574 93.5374C253.108 92.988 253.829 92.6601 254.594 92.6191L254.594 92.6129L254.942 92.6172C257.753 92.6566 262.912 92.8571 267.133 93.7354C268.556 94.0299 269.835 94.7999 270.762 95.9188C271.689 97.0376 272.207 98.4386 272.231 99.8911C272.327 104.085 272.341 109.761 271.865 112.988C271.464 115.71 272.205 120.938 272.683 123.811C272.72 124.035 272.708 124.264 272.647 124.483C272.587 124.702 272.479 124.905 272.333 125.078C272.186 125.251 272.004 125.39 271.798 125.485C271.592 125.581 271.368 125.63 271.141 125.631H271.141Z" fill="#3F3D56"/>
<path d="M277.301 142.08C276.842 141.86 276.436 141.542 276.112 141.148C275.789 140.754 275.556 140.294 275.43 139.8C275.303 139.306 275.287 138.791 275.381 138.29C275.476 137.789 275.679 137.315 275.976 136.901L268.006 102.533H274.032L281.065 136.223C281.728 136.769 282.167 137.539 282.299 138.387C282.432 139.235 282.249 140.102 281.785 140.824C281.321 141.545 280.608 142.072 279.782 142.304C278.955 142.535 278.073 142.456 277.301 142.08H277.301Z" fill="#FFB8B8"/>
<path d="M239.556 106.256L249.098 97.2304L252.692 102.263L243.706 110.171L255.491 119.53C255.576 119.524 255.661 119.517 255.748 119.517C256.473 119.516 257.183 119.725 257.793 120.117C258.403 120.509 258.887 121.069 259.187 121.729C259.487 122.389 259.591 123.122 259.486 123.84C259.38 124.557 259.071 125.229 258.593 125.775C258.116 126.321 257.492 126.718 256.795 126.919C256.098 127.119 255.358 127.115 254.663 126.906C253.969 126.697 253.349 126.292 252.879 125.74C252.409 125.188 252.107 124.512 252.011 123.794L251.973 123.831L239.707 113.2C239.213 112.772 238.814 112.244 238.535 111.652C238.257 111.06 238.106 110.416 238.092 109.762C238.077 109.108 238.2 108.458 238.453 107.854C238.705 107.25 239.081 106.706 239.556 106.256Z" fill="#FFB8B8"/>
<path d="M268.641 104.735C268.346 104.736 268.057 104.653 267.808 104.496C267.558 104.339 267.358 104.114 267.232 103.847C266.472 102.242 265.948 100.535 265.678 98.78C265.264 95.9128 267.258 94.2072 269.285 93.8356C271.257 93.4741 273.66 94.3411 274.274 97.0988C274.325 97.3322 274.365 97.5681 274.393 97.8056C274.638 99.896 274.87 101.522 275.08 102.638C275.122 102.858 275.115 103.084 275.062 103.3C275.009 103.517 274.91 103.72 274.771 103.896C274.633 104.071 274.458 104.215 274.26 104.317C274.061 104.419 273.843 104.478 273.62 104.489L268.721 104.733C268.694 104.735 268.668 104.735 268.641 104.735Z" fill="#3F3D56"/>
<path d="M261.809 89.6588C267.572 89.6588 272.243 84.9876 272.243 79.2253C272.243 73.463 267.572 68.7917 261.809 68.7917C256.047 68.7917 251.376 73.463 251.376 79.2253C251.376 84.9876 256.047 89.6588 261.809 89.6588Z" fill="#2F2E41"/>
<path d="M261.872 90.4756C266.59 90.4756 270.414 86.6512 270.414 81.9336C270.414 77.216 266.59 73.3917 261.872 73.3917C257.155 73.3917 253.33 77.216 253.33 81.9336C253.33 86.6512 257.155 90.4756 261.872 90.4756Z" fill="#FFB8B8"/>
<path d="M246.711 100.578C246.493 100.38 246.336 100.123 246.258 99.8387C246.181 99.5541 246.185 99.2533 246.272 98.9714C246.796 97.2744 247.564 95.6624 248.55 94.1858C250.182 91.7924 252.805 91.8819 254.55 92.9778C256.249 94.0438 257.434 96.306 256.023 98.7539C255.903 98.9608 255.773 99.1616 255.633 99.3554C254.402 101.063 253.474 102.418 252.875 103.383C252.757 103.573 252.6 103.735 252.414 103.859C252.229 103.982 252.018 104.065 251.798 104.101C251.577 104.137 251.352 104.125 251.136 104.066C250.921 104.007 250.72 103.903 250.549 103.76L246.772 100.631C246.751 100.614 246.731 100.596 246.711 100.578Z" fill="#3F3D56"/>
<path d="M259.783 69.9072C257.683 68.6545 257.229 65.5349 258.479 63.4343C259.73 61.3337 262.258 60.2379 264.702 60.1657C268.192 60.0625 271.564 61.8006 274.007 64.2956C276.451 66.7906 278.063 69.9845 279.291 73.2534C280.52 76.5224 281.402 79.9128 282.613 83.1885C283.234 84.8693 283.999 86.5953 285.42 87.6868C286.842 88.7783 289.101 88.9752 290.316 87.6579C290.311 89.7659 288.695 91.6821 286.691 92.3347C284.686 92.9874 282.419 92.4945 280.662 91.3301C277.613 89.31 276.142 85.6225 275.3 82.0637C274.459 78.5049 274.045 74.7757 272.353 71.5335C271.653 70.1902 270.692 68.9141 269.341 68.2287C267.99 67.5432 266.19 67.5882 265.103 68.6438C264.599 69.1327 264.273 69.7994 263.702 70.207C263.34 70.4331 262.932 70.5736 262.508 70.6177C262.084 70.6619 261.655 70.6086 261.255 70.4618C260.457 70.1619 259.711 69.7408 259.042 69.2132" fill="#2F2E41"/>
<path d="M252.951 76.162C253.775 77.2689 254.813 78.1976 256.005 78.8923C257.197 79.587 258.517 80.0332 259.886 80.204C261.254 80.3749 262.644 80.2668 263.97 79.8864C265.295 79.506 266.531 78.8611 267.601 77.9906C268.43 77.3158 269.2 76.3858 269.148 75.3178C269.095 74.224 268.201 73.3648 267.288 72.7598C264.886 71.1813 261.998 70.5176 259.148 70.8896C257.523 71.108 255.892 71.7006 254.74 72.8692C253.589 74.0378 253.015 75.8552 253.609 77.3844" fill="#2F2E41"/>
</g>
</g>
<defs>
<clipPath id="clip0">
<rect width="300" height="260" fill="white"/>
</clipPath>
<clipPath id="clip1">
<rect width="320" height="143.271" fill="white" transform="translate(-10 58.3646)"/>
</clipPath>
</defs>
</svg>
